<svg xmlns="http://www.w3.org/2000/svg" xmlns:xlink="http://www.w3.org/1999/xlink" viewBox="0 0 405.57 446.58"><defs><style>.cls-1,.cls-20,.cls-23,.cls-4,.cls-7{fill:#fff;}.cls-1,.cls-10,.cls-13,.cls-14,.cls-2,.cls-20,.cls-23,.cls-3,.cls-6{stroke:#263238;}.cls-1,.cls-10,.cls-13,.cls-14,.cls-2,.cls-20,.cls-22,.cls-23,.cls-3,.cls-6{stroke-linecap:round;stroke-linejoin:round;}.cls-2,.cls-5{fill:#92e3a9;}.cls-11,.cls-3{fill:#263238;}.cls-4{opacity:0.7;}.cls-10,.cls-22,.cls-6{fill:none;}.cls-8{clip-path:url(#clip-path);}.cls-27,.cls-31,.cls-9{fill-opacity:0.7;}.cls-9{opacity:0.2;}.cls-10{stroke-width:2px;}.cls-12{clip-path:url(#clip-path-2);}.cls-13{fill:#757575;}.cls-14{fill:#999;}.cls-15{clip-path:url(#clip-path-3);}.cls-16{clip-path:url(#clip-path-4);}.cls-17{clip-path:url(#clip-path-5);}.cls-18{opacity:0.3;}.cls-19{clip-path:url(#clip-path-6);}.cls-20,.cls-24,.cls-31{opacity:0.4;}.cls-21{clip-path:url(#clip-path-7);}.cls-22{stroke:#fff;}.cls-23{opacity:0.6;}.cls-25{clip-path:url(#clip-path-8);}.cls-26{clip-path:url(#clip-path-9);}.cls-27{opacity:0.5;}.cls-28{clip-path:url(#clip-path-10);}.cls-29{clip-path:url(#clip-path-11);}.cls-30{clip-path:url(#clip-path-12);}.cls-32{clip-path:url(#clip-path-13);}</style><clipPath id="clip-path" transform="translate(-47.21 -25.52)"><polygon class="cls-1" points="252.99 246.08 246.4 371.55 162.91 367.17 163.61 353.87 169.5 241.69 222.07 244.45 252.99 246.08"/></clipPath><clipPath id="clip-path-2" transform="translate(-47.21 -25.52)"><polygon class="cls-1" points="197.51 336.04 116.96 358.43 83.32 237.36 116.67 228.09 163.87 214.98 194.39 324.82 197.51 336.04"/></clipPath><clipPath id="clip-path-3" transform="translate(-47.21 -25.52)"><path class="cls-2" d="M412.16,275.05l-12.24,45.18A9.64,9.64,0,0,1,391.1,327H321.26a5.07,5.07,0,0,1-5.16-6.75l12.25-45.18a9.65,9.65,0,0,1,8.82-6.75H407A5.08,5.08,0,0,1,412.16,275.05Z"/></clipPath><clipPath id="clip-path-4" transform="translate(-47.21 -25.52)"><path class="cls-2" d="M377.15,363v8.24H287.23V363a6.06,6.06,0,0,1,6.06-6.06h77.79a6.07,6.07,0,0,1,5.86,4.47A5.93,5.93,0,0,1,377.15,363Z"/></clipPath><clipPath id="clip-path-5" transform="translate(-47.21 -25.52)"><path class="cls-3" d="M284.31,369c-4.31,4.39,16.58,73.37,16.58,73.37-2.28,2-5.64,2.92-8.82,3.34a40.53,40.53,0,0,1-8.81.13s-29.94-72.62-21.7-90.64S320.93,329,320.93,329l2.18-5.4,26.45-3.72,4.37,32.39s-4.34.42-10.87,1.26C325.55,355.75,292.23,361,284.31,369Z"/></clipPath><clipPath id="clip-path-6" transform="translate(-47.21 -25.52)"><path class="cls-1" d="M269.51,303.71c-4.39-.75,26.86-28.15,26.86-28.15l15.07,10.14s-25.64,18.06-29.67,18.55S269.51,303.71,269.51,303.71Z"/></clipPath><clipPath id="clip-path-7" transform="translate(-47.21 -25.52)"><path class="cls-2" d="M296.67,435.09,305,457s1.38,5.63-23.74,3.85l-13.84-1.18Z"/></clipPath><clipPath id="clip-path-8" transform="translate(-47.21 -25.52)"><path class="cls-1" d="M324.36,277.39a18.49,18.49,0,0,1-1-7.43,21.71,21.71,0,0,1,.27-2.55l-1.69-2.68-2.17-3.45,2.51-10s16,3.08,17.2,7.54S324.36,277.39,324.36,277.39Z"/></clipPath><clipPath id="clip-path-9" transform="translate(-47.21 -25.52)"><path class="cls-2" d="M381.24,397a68.26,68.26,0,0,0-21.19,22c-8.81,14.7-15.79,35.38-4.95,38l10.31-.39,19.84-6.81-2.08-4s-17.37,9.21-20.34,9.21-6.84.74-8.47-.45,5.71-27.92,21.42-36.83S381.24,397,381.24,397Z"/></clipPath><clipPath id="clip-path-10" transform="translate(-47.21 -25.52)"><path class="cls-2" d="M382.87,457c-13.81,0-11.19-61.93-9.6-65s41.66-4.6,45.61-3.3,19.79,63,11.05,67.93Z"/></clipPath><clipPath id="clip-path-11" transform="translate(-47.21 -25.52)"><path class="cls-2" d="M409.69,403.58l5.88,4.8a.8.8,0,0,1,.08,1.14l-4.58,4.94a.78.78,0,0,1-1.11,0L404.13,409a.78.78,0,0,1,0-1.14l4.53-4.21A.79.79,0,0,1,409.69,403.58Z"/></clipPath><clipPath id="clip-path-12" transform="translate(-47.21 -25.52)"><path class="cls-2" d="M390.3,428.79s26.58,2.19,39.63-1.19a11.22,11.22,0,0,1,3.73,5.35c1.19,3.56,3.67,15.74-3.73,18.86s-34,2.52-37.55-1S390.3,428.79,390.3,428.79Z"/></clipPath><clipPath id="clip-path-13" transform="translate(-47.21 -25.52)"><path class="cls-2" d="M379.16,427s.89,17.67,2.67,21.68a9.27,9.27,0,0,1-8.56,0c-4.5-2.38-3.76-17.6-2.87-17.56S379.16,427,379.16,427Z"/></clipPath></defs><title>shereen</title><g id="Background_Simple" data-name="Background Simple"><path class="cls-4" d="M67.93,167.09s-27.88,72,11.3,144.5S199.11,422.39,263.7,455.14s131.66,16.8,163.53-36.84-11.84-91.93-11.9-168.42,11.45-96.74-30-161.36-143.06-78.93-219.9-31S67.93,167.09,67.93,167.09Z" transform="translate(-47.21 -25.52)"/><path class="cls-5" d="M415.33,259.88c-.05-76.49,11.45-96.74-30-161.36s-143.06-78.93-219.9-31S67.93,177.09,67.93,177.09s-27.88,72,11.3,144.5c35.83,66.32,106.39,104,167.59,135H403.31a110.19,110.19,0,0,0,23.92-28.3C459.1,374.66,415.39,336.37,415.33,259.88Z" transform="translate(-47.21 -25.52)"/><path class="cls-4" d="M415.33,259.88c-.05-76.49,11.45-96.74-30-161.36s-143.06-78.93-219.9-31S67.93,177.09,67.93,177.09s-27.88,72,11.3,144.5c35.83,66.32,106.39,104,167.59,135H403.31a110.19,110.19,0,0,0,23.92-28.3C459.1,374.66,415.39,336.37,415.33,259.88Z" transform="translate(-47.21 -25.52)"/></g><g id="Clocks"><path class="cls-6" d="M229.79,50.72c1.35,5.35.69-4.5,3.34-16.56S240.31,27,240.31,27" transform="translate(-47.21 -25.52)"/><line class="cls-6" x1="181.75" y1="12.89" x2="190.05" y2="9.48"/><path class="cls-6" d="M244.14,30.92s-5,10.26,2.51,14.63" transform="translate(-47.21 -25.52)"/><path class="cls-6" d="M251.18,28s8.19,4.55,3.06,14.41" transform="translate(-47.21 -25.52)"/><line class="cls-6" x1="198.35" y1="8.87" x2="204.22" y2="13.16"/><line class="cls-6" x1="202.95" y1="6.99" x2="198.36" y2="14.3"/><path class="cls-6" d="M71.31,292.42s-13.93-.2-14,11.82" transform="translate(-47.21 -25.52)"/><path class="cls-6" d="M70.15,300c-.29-1.77-6.35-4-7.4.62s6.48,1.85,8.81-.31c0,0-4.32,4.2-3,5.38" transform="translate(-47.21 -25.52)"/><path class="cls-6" d="M71,307s-1.83,2.29-3.81,1.2" transform="translate(-47.21 -25.52)"/><path class="cls-6" d="M83.19,299,72.74,309.61S78,304.28,81.05,306c3.8,2.08-1.13,7.78-5.19,3.7" transform="translate(-47.21 -25.52)"/><path class="cls-6" d="M88.47,301.86S91.24,314.55,76.94,315" transform="translate(-47.21 -25.52)"/><polyline class="cls-6" points="227.82 60.61 232.85 61.44 232.93 72.89 243.97 52.76 261.38 55.62"/><line class="cls-6" x1="245.88" y1="61.58" x2="253.54" y2="75.1"/><line class="cls-6" x1="255.5" y1="63.16" x2="241.79" y2="73.17"/><path class="cls-6" d="M206.16,106.51c-1.29-1.64-8.72-.47-7.21,4.79s7.65-1.75,8.82-5.26c0,0-2.05,6.71,0,7.16" transform="translate(-47.21 -25.52)"/><path class="cls-6" d="M211.85,101.1,210.19,107s.83-3,2.29-3c1.79,0,1.14,3.05-1.15,2.38" transform="translate(-47.21 -25.52)"/><polyline class="cls-6" points="304.71 148.31 301.21 160.96 308.87 169.33"/><line class="cls-6" x1="309.09" y1="153.45" x2="317.86" y2="160.78"/><line class="cls-6" x1="315.13" y1="151.64" x2="311.34" y2="160.95"/><path class="cls-6" d="M368.5,185.27s.08,2.64-1.06,3" transform="translate(-47.21 -25.52)"/><line class="cls-6" x1="322.4" y1="150.53" x2="327.68" y2="154.46"/><line class="cls-6" x1="329.65" y1="147.3" x2="324.43" y2="166.1"/><polyline class="cls-6" points="329.9 140.77 338.38 150.37 334.77 160.87"/><polygon class="cls-6" points="96.37 388.49 108.63 351.97 123.51 368.58 96.37 388.49"/><polyline class="cls-6" points="119.87 371.25 116.73 367.66 120.07 364.76"/><circle class="cls-6" cx="66.27" cy="197.29" r="12.49" transform="translate(-117.67 14.86) rotate(-22.5)"/><circle class="cls-6" cx="32.92" cy="160.83" r="13.86"/><line class="cls-6" x1="21.52" y1="159.52" x2="19.83" y2="165.39"/><line class="cls-6" x1="23.91" y1="160.25" x2="21.52" y2="168.71"/><line class="cls-6" x1="26.41" y1="161.67" x2="23.91" y2="171.24"/><line class="cls-6" x1="29.2" y1="164.48" x2="27.42" y2="173.56"/><line class="cls-6" x1="30.78" y1="167.44" x2="29.2" y2="174.19"/><path class="cls-6" d="M54.33,181.28c-1.09-.33-4.08,2.51-1.76,4.42s2.91-3.18,2.34-5.13c0,0,1.17,3.67,2.23,3.23" transform="translate(-47.21 -25.52)"/><path class="cls-6" d="M70.45,165.25l4,7.28s-2-3.64-.59-5c1.72-1.68,4,1.87,1.12,3.36" transform="translate(-47.21 -25.52)"/><line class="cls-6" x1="96.33" y1="138.86" x2="101.98" y2="144.21"/><line class="cls-6" x1="101.98" y1="137.47" x2="97.24" y2="144.53"/><line class="cls-6" x1="107.53" y1="139.5" x2="113.18" y2="137.4"/><line class="cls-6" x1="115.89" y1="131.5" x2="119.33" y2="134.54"/><line class="cls-6" x1="121.97" y1="127.85" x2="117.61" y2="142.78"/><path class="cls-6" d="M416.14,150.36l-.24-11.42h8.63s-4.78,2.64-2.58,8.78,5.74,2.64,5.74,2.64" transform="translate(-47.21 -25.52)"/><polygon class="cls-6" points="354.3 319.65 364.12 312.89 377.13 313.8 377.94 330.29 368.39 337.11 356.62 336.25 354.3 319.65"/><polyline class="cls-6" points="356.62 336.25 366.12 329.41 377.94 330.29"/><line class="cls-6" x1="366.12" y1="329.41" x2="364.12" y2="312.89"/><polyline class="cls-6" points="354.3 319.65 367.28 321.15 377.13 313.8"/><line class="cls-6" x1="367.28" y1="321.15" x2="368.39" y2="337.11"/><polygon class="cls-6" points="356.09 195.87 355.67 217.85 374.93 209.1 356.09 195.87"/><line class="cls-6" x1="356.09" y1="195.87" x2="365.26" y2="213.36"/><polyline class="cls-6" points="363.79 210.55 366.03 209.47 367.52 212.46"/><line class="cls-6" x1="188.26" y1="193.79" x2="196.21" y2="202.32"/><line class="cls-6" x1="196.28" y1="192.64" x2="189.59" y2="201.8"/><path class="cls-6" d="M246.75,213.69a1.59,1.59,0,0,1,2.24,1.2c.39,1.92-2.76,4.42-2.76,4.42h4.49" transform="translate(-47.21 -25.52)"/><path class="cls-6" d="M111.54,91.5a28.94,28.94,0,0,1,15.24-23.26" transform="translate(-47.21 -25.52)"/><path class="cls-6" d="M133.65,122A28.92,28.92,0,0,1,116,109.41" transform="translate(-47.21 -25.52)"/><path class="cls-6" d="M169.3,96.11a29,29,0,0,1-31.19,26.58" transform="translate(-47.21 -25.52)"/><path class="cls-6" d="M142.72,64.93a29,29,0,0,1,26.41,24.94" transform="translate(-47.21 -25.52)"/><path class="cls-6" d="M152.92,116.11a25.57,25.57,0,0,1-38-24.34" transform="translate(-47.21 -25.52)"/><path class="cls-6" d="M116.56,84.61a25.57,25.57,0,1,1,42.93,26.22" transform="translate(-47.21 -25.52)"/><polyline class="cls-6" points="90.69 49.89 93.2 68.29 107.35 63.89"/><path class="cls-6" d="M360.9,129.57a20.06,20.06,0,0,1-13.69-34.9" transform="translate(-47.21 -25.52)"/><path class="cls-6" d="M379.69,116a20,20,0,0,1-12.32,12.45" transform="translate(-47.21 -25.52)"/><path class="cls-6" d="M354.05,90.59a20.06,20.06,0,0,1,25.58,12.26" transform="translate(-47.21 -25.52)"/><path class="cls-6" d="M370.61,94.84a17.7,17.7,0,1,1-23,26.58" transform="translate(-47.21 -25.52)"/><path class="cls-6" d="M344,115.38a17.7,17.7,0,0,1,21.15-23" transform="translate(-47.21 -25.52)"/><polyline class="cls-6" points="306.74 73.06 313.5 83.99 307.33 91.99"/><path class="cls-6" d="M219,408.43A16.07,16.07,0,0,1,226,395.11" transform="translate(-47.21 -25.52)"/><path class="cls-6" d="M246.71,419.51a16.09,16.09,0,0,1-26.89-5.9" transform="translate(-47.21 -25.52)"/><path class="cls-6" d="M235.05,392.34a16.09,16.09,0,0,1,16.09,16.09" transform="translate(-47.21 -25.52)"/><path class="cls-6" d="M235.05,422.62a14.19,14.19,0,0,1-14.19-14.19" transform="translate(-47.21 -25.52)"/><path class="cls-6" d="M224,399.52a14.2,14.2,0,1,1,18,21.31" transform="translate(-47.21 -25.52)"/><polyline class="cls-6" points="185.64 392.56 187.84 382.91 184.76 375.03"/><line class="cls-6" x1="0.5" y1="431.43" x2="405.07" y2="431.43"/></g><g id="Exam_sheets" data-name="Exam sheets"><polygon class="cls-7" points="205.77 220.56 199.18 346.03 115.7 341.65 116.39 328.35 122.28 216.17 174.86 218.93 205.77 220.56"/><g class="cls-8"><polygon class="cls-9" points="179.72 294.07 160.91 295.62 166.39 319.31 116.39 328.35 122.28 216.17 174.86 218.93 179.72 294.07"/></g><polygon class="cls-6" points="205.77 220.56 199.18 346.03 115.7 341.65 116.39 328.35 122.28 216.17 174.86 218.93 205.77 220.56"/><line class="cls-10" x1="128.18" y1="224.75" x2="149.9" y2="225.9"/><line class="cls-10" x1="127.96" y1="228.93" x2="142.73" y2="229.7"/><line class="cls-10" x1="132.74" y1="239.05" x2="195.23" y2="242.33"/><line class="cls-10" x1="132.52" y1="243.22" x2="195.01" y2="246.5"/><line class="cls-10" x1="132.26" y1="248.09" x2="185.56" y2="250.89"/><rect class="cls-6" x="179.37" y="278.18" width="5.09" height="5.09" transform="translate(-32.23 -34.68) rotate(3.01)"/><rect class="cls-6" x="188.59" y="278.66" width="5.09" height="5.09" transform="translate(-32.2 -35.16) rotate(3.01)"/><rect class="cls-6" x="197.8" y="279.15" width="5.09" height="5.09" transform="translate(-32.16 -35.64) rotate(3.01)"/><rect class="cls-6" x="207.01" y="279.63" width="5.09" height="5.09" transform="translate(-32.13 -36.12) rotate(3.01)"/><path class="cls-11" d="M176.62,264.39a1.26,1.26,0,0,1-1.33,1.21,1.27,1.27,0,1,1,.13-2.54A1.26,1.26,0,0,1,176.62,264.39Z" transform="translate(-47.21 -25.52)"/><line class="cls-10" x1="131.46" y1="263.38" x2="193.95" y2="266.66"/><line class="cls-10" x1="131.24" y1="267.55" x2="193.73" y2="270.83"/><line class="cls-10" x1="130.98" y1="272.42" x2="184.29" y2="275.22"/><rect class="cls-6" x="178.1" y="302.51" width="5.09" height="5.09" transform="translate(-30.97 -34.57) rotate(3.01)"/><rect class="cls-6" x="187.31" y="302.99" width="5.09" height="5.09" transform="translate(-30.93 -35.06) rotate(3.01)"/><rect class="cls-6" x="196.52" y="303.48" width="5.09" height="5.09" transform="translate(-30.89 -35.54) rotate(3.01)"/><rect class="cls-6" x="205.73" y="303.96" width="5.09" height="5.09" transform="translate(-30.85 -36.02) rotate(3.01)"/><path class="cls-11" d="M175.35,288.72a1.27,1.27,0,0,1-1.34,1.21,1.28,1.28,0,1,1,1.34-1.21Z" transform="translate(-47.21 -25.52)"/><line class="cls-10" x1="130.18" y1="287.71" x2="192.68" y2="290.99"/><line class="cls-10" x1="129.96" y1="291.88" x2="192.46" y2="295.16"/><line class="cls-10" x1="129.71" y1="296.75" x2="183.01" y2="299.55"/><rect class="cls-6" x="176.82" y="326.84" width="5.09" height="5.09" transform="translate(-29.68 -34.48) rotate(3.01)"/><rect class="cls-6" x="186.03" y="327.32" width="5.09" height="5.09" transform="matrix(1, 0.05, -0.05, 1, -29.65, -34.96)"/><rect class="cls-6" x="195.24" y="327.81" width="5.09" height="5.09" transform="translate(-29.62 -35.44) rotate(3.01)"/><rect class="cls-6" x="204.46" y="328.29" width="5.09" height="5.09" transform="translate(-29.57 -35.92) rotate(3.01)"/><path class="cls-11" d="M174.07,313.05a1.27,1.27,0,0,1-1.34,1.21,1.28,1.28,0,1,1,.13-2.55A1.27,1.27,0,0,1,174.07,313.05Z" transform="translate(-47.21 -25.52)"/><line class="cls-10" x1="128.87" y1="312.73" x2="191.36" y2="316.02"/><line class="cls-10" x1="128.65" y1="316.91" x2="191.14" y2="320.19"/><line class="cls-10" x1="128.39" y1="321.77" x2="181.69" y2="324.57"/><rect class="cls-6" x="175.5" y="351.86" width="5.09" height="5.09" transform="translate(-28.38 -34.37) rotate(3.01)"/><rect class="cls-6" x="184.72" y="352.35" width="5.09" height="5.09" transform="translate(-28.34 -34.86) rotate(3.01)"/><rect class="cls-6" x="193.93" y="352.83" width="5.09" height="5.09" transform="translate(-28.3 -35.34) rotate(3.01)"/><rect class="cls-6" x="203.14" y="353.32" width="5.09" height="5.09" transform="translate(-28.26 -35.82) rotate(3.01)"/><path class="cls-11" d="M172.75,338.08a1.27,1.27,0,0,1-2.54-.14,1.27,1.27,0,0,1,2.54.14Z" transform="translate(-47.21 -25.52)"/><polyline class="cls-10" points="134.02 254.65 134.68 255.79 137.38 252.8"/><polyline class="cls-10" points="151.18 279.64 151.84 280.78 154.55 277.79"/><polyline class="cls-10" points="159.79 305.32 160.45 306.46 163.16 303.46"/><polyline class="cls-10" points="139.39 328.24 140.05 329.38 142.76 326.38"/><polygon class="cls-7" points="150.3 310.52 69.75 332.91 36.11 211.84 69.46 202.57 116.66 189.46 147.18 299.31 150.3 310.52"/><g class="cls-12"><polygon class="cls-9" points="147.18 299.31 84.9 303.33 69.46 202.57 116.66 189.46 147.18 299.31"/></g><polygon class="cls-6" points="150.3 310.52 69.75 332.91 36.11 211.84 69.46 202.57 116.66 189.46 147.18 299.31 150.3 310.52"/><line class="cls-10" x1="44.42" y1="218.11" x2="65.38" y2="212.28"/><line class="cls-10" x1="45.54" y1="222.13" x2="59.79" y2="218.17"/><line class="cls-10" x1="53.29" y1="230.21" x2="113.58" y2="213.46"/><line class="cls-10" x1="54.41" y1="234.23" x2="114.7" y2="217.48"/><line class="cls-10" x1="55.71" y1="238.93" x2="107.14" y2="224.64"/><rect class="cls-6" x="104.96" y="267.88" width="5.09" height="5.09" transform="translate(-115.69 13.14) rotate(-15.53)"/><rect class="cls-6" x="113.85" y="265.41" width="5.09" height="5.09" transform="translate(-114.7 15.42) rotate(-15.53)"/><rect class="cls-6" x="122.74" y="262.94" width="5.09" height="5.09" transform="translate(-113.72 17.71) rotate(-15.53)"/><rect class="cls-6" x="131.62" y="260.47" width="5.09" height="5.09" transform="translate(-112.73 20) rotate(-15.53)"/><path class="cls-11" d="M97.29,256.62a1.27,1.27,0,1,1-1.57-.88A1.28,1.28,0,0,1,97.29,256.62Z" transform="translate(-47.21 -25.52)"/><line class="cls-10" x1="59.81" y1="253.68" x2="120.11" y2="236.93"/><line class="cls-10" x1="60.93" y1="257.71" x2="121.22" y2="240.95"/><line class="cls-10" x1="62.23" y1="262.4" x2="113.66" y2="248.11"/><rect class="cls-6" x="111.48" y="291.35" width="5.09" height="5.09" transform="translate(-121.73 15.74) rotate(-15.53)"/><rect class="cls-6" x="120.37" y="288.88" width="5.09" height="5.09" transform="translate(-120.75 18.03) rotate(-15.53)"/><rect class="cls-6" x="129.26" y="286.41" width="5.09" height="5.09" transform="translate(-119.77 20.32) rotate(-15.53)"/><rect class="cls-6" x="138.15" y="283.94" width="5.09" height="5.09" transform="translate(-118.78 22.6) rotate(-15.53)"/><path class="cls-11" d="M103.82,280.1a1.28,1.28,0,1,1-1.57-.89A1.27,1.27,0,0,1,103.82,280.1Z" transform="translate(-47.21 -25.52)"/><line class="cls-10" x1="66.33" y1="277.16" x2="126.63" y2="260.4"/><line class="cls-10" x1="67.45" y1="281.18" x2="127.75" y2="264.43"/><line class="cls-10" x1="68.76" y1="285.88" x2="120.18" y2="271.59"/><rect class="cls-6" x="118" y="314.82" width="5.09" height="5.09" transform="translate(-127.78 18.34) rotate(-15.53)"/><rect class="cls-6" x="126.89" y="312.35" width="5.09" height="5.09" transform="translate(-126.8 20.63) rotate(-15.53)"/><rect class="cls-6" x="135.78" y="309.88" width="5.09" height="5.09" transform="translate(-125.81 22.92) rotate(-15.53)"/><rect class="cls-6" x="144.67" y="307.41" width="5.09" height="5.09" transform="translate(-124.83 25.21) rotate(-15.53)"/><path class="cls-11" d="M110.34,303.57a1.28,1.28,0,1,1-1.57-.89A1.27,1.27,0,0,1,110.34,303.57Z" transform="translate(-47.21 -25.52)"/><line class="cls-10" x1="73.04" y1="301.3" x2="133.34" y2="284.55"/><line class="cls-10" x1="74.16" y1="305.33" x2="134.46" y2="288.57"/><line class="cls-10" x1="75.47" y1="310.02" x2="126.89" y2="295.73"/><rect class="cls-6" x="124.71" y="338.97" width="5.09" height="5.09" transform="translate(-134 21.02) rotate(-15.53)"/><rect class="cls-6" x="133.6" y="336.5" width="5.09" height="5.09" transform="translate(-133.01 23.31) rotate(-15.53)"/><rect class="cls-6" x="142.49" y="334.03" width="5.09" height="5.09" transform="translate(-132.03 25.6) rotate(-15.53)"/><rect class="cls-6" x="151.38" y="331.56" width="5.09" height="5.09" transform="translate(-131.04 27.89) rotate(-15.53)"/><path class="cls-11" d="M117.05,327.71a1.28,1.28,0,1,1-1.57-.88A1.27,1.27,0,0,1,117.05,327.71Z" transform="translate(-47.21 -25.52)"/><polyline class="cls-10" points="67.83 242.26 68.82 243.13 70.43 239.43"/><polyline class="cls-10" points="65.42 268.45 66.4 269.32 68.02 265.62"/><polyline class="cls-10" points="71.93 291.68 72.92 292.55 74.54 288.85"/><polyline class="cls-10" points="96.41 310.71 97.4 311.58 99.01 307.88"/><rect class="cls-1" x="127.97" y="190.74" width="83.6" height="125.65" transform="translate(-70.68 -8.12) rotate(-5.49)"/><line class="cls-10" x1="82.04" y1="177.12" x2="103.69" y2="175.04"/><line class="cls-10" x1="82.44" y1="181.28" x2="97.16" y2="179.87"/><line class="cls-10" x1="88.66" y1="190.59" x2="150.95" y2="184.6"/><line class="cls-10" x1="89.06" y1="194.75" x2="151.35" y2="188.76"/><line class="cls-10" x1="89.52" y1="199.6" x2="142.65" y2="194.49"/><rect class="cls-6" x="137.66" y="229.25" width="5.09" height="5.09" transform="translate(-68.74 -11.05) rotate(-5.49)"/><rect class="cls-6" x="146.84" y="228.37" width="5.09" height="5.09" transform="translate(-68.61 -10.18) rotate(-5.49)"/><rect class="cls-6" x="156.03" y="227.49" width="5.09" height="5.09" transform="translate(-68.48 -9.3) rotate(-5.49)"/><rect class="cls-6" x="165.21" y="226.6" width="5.09" height="5.09" transform="translate(-68.36 -8.43) rotate(-5.49)"/><path class="cls-11" d="M132.56,216.43a1.28,1.28,0,1,1-1.39-1.15A1.27,1.27,0,0,1,132.56,216.43Z" transform="translate(-47.21 -25.52)"/><line class="cls-10" x1="90.99" y1="214.84" x2="153.28" y2="208.86"/><line class="cls-10" x1="91.39" y1="219" x2="153.68" y2="213.01"/><line class="cls-10" x1="91.85" y1="223.85" x2="144.98" y2="218.74"/><rect class="cls-6" x="139.99" y="253.5" width="5.09" height="5.09" transform="translate(-71.04 -10.72) rotate(-5.49)"/><rect class="cls-6" x="149.17" y="252.62" width="5.09" height="5.09" transform="translate(-70.92 -9.84) rotate(-5.49)"/><rect class="cls-6" x="158.35" y="251.74" width="5.09" height="5.09" transform="translate(-70.79 -8.97) rotate(-5.49)"/><rect class="cls-6" x="167.54" y="250.86" width="5.09" height="5.09" transform="translate(-70.67 -8.09) rotate(-5.49)"/><path class="cls-11" d="M134.89,240.68a1.28,1.28,0,1,1-1.39-1.15A1.28,1.28,0,0,1,134.89,240.68Z" transform="translate(-47.21 -25.52)"/><line class="cls-10" x1="93.32" y1="239.09" x2="155.61" y2="233.11"/><line class="cls-10" x1="93.72" y1="243.25" x2="156.01" y2="237.27"/><line class="cls-10" x1="94.18" y1="248.1" x2="147.31" y2="243"/><rect class="cls-6" x="142.32" y="277.75" width="5.09" height="5.09" transform="translate(-73.35 -10.38) rotate(-5.49)"/><rect class="cls-6" x="151.5" y="276.87" width="5.09" height="5.09" transform="translate(-73.23 -9.51) rotate(-5.49)"/><rect class="cls-6" x="160.68" y="275.99" width="5.09" height="5.09" transform="translate(-73.09 -8.64) rotate(-5.49)"/><rect class="cls-6" x="169.87" y="275.11" width="5.09" height="5.09" transform="translate(-72.97 -7.76) rotate(-5.49)"/><path class="cls-11" d="M137.21,264.93a1.27,1.27,0,1,1-1.38-1.15A1.27,1.27,0,0,1,137.21,264.93Z" transform="translate(-47.21 -25.52)"/><line class="cls-10" x1="95.71" y1="264.04" x2="158.01" y2="258.05"/><line class="cls-10" x1="96.11" y1="268.19" x2="158.41" y2="262.21"/><line class="cls-10" x1="96.58" y1="273.04" x2="149.71" y2="267.94"/><rect class="cls-6" x="144.71" y="302.7" width="5.09" height="5.09" transform="translate(-75.72 -10.04) rotate(-5.49)"/><rect class="cls-6" x="153.9" y="301.82" width="5.09" height="5.09" transform="translate(-75.6 -9.17) rotate(-5.49)"/><rect class="cls-6" x="163.08" y="300.93" width="5.09" height="5.09" transform="translate(-75.47 -8.29) rotate(-5.49)"/><rect class="cls-6" x="172.26" y="300.05" width="5.09" height="5.09" transform="translate(-75.34 -7.42) rotate(-5.49)"/><path class="cls-11" d="M139.61,289.87a1.28,1.28,0,0,1-2.54.25,1.28,1.28,0,0,1,1.15-1.39A1.27,1.27,0,0,1,139.61,289.87Z" transform="translate(-47.21 -25.52)"/><polyline class="cls-10" points="92.23 205.83 93.05 206.86 95.28 203.5"/><polyline class="cls-10" points="112.89 228.01 113.71 229.04 115.95 225.68"/><polyline class="cls-10" points="106.09 253.65 106.91 254.68 109.15 251.32"/><polyline class="cls-10" points="126.72 276.64 127.54 277.67 129.77 274.31"/></g><g id="Bubble"><path class="cls-1" d="M307.15,137.71H255.48a6.88,6.88,0,0,0-6.88,6.88V189a6.88,6.88,0,0,0,6.88,6.88h22.9l13.12,15.81-3.29-15.81h18.94A6.88,6.88,0,0,0,314,189V144.59A6.88,6.88,0,0,0,307.15,137.71Z" transform="translate(-47.21 -25.52)"/><path class="cls-5" d="M285.45,162.07v-4.7l-3.52-.3a9.77,9.77,0,0,0-.87-2.11l2.27-2.7L280,148.94l-2.7,2.27a9.56,9.56,0,0,0-2.11-.87l-.3-3.52h-4.7l-.3,3.52a9.56,9.56,0,0,0-2.11.87l-2.7-2.27-3.33,3.32L264,155a9.8,9.8,0,0,0-.88,2.11l-3.52.3v4.7l3.52.31a9.8,9.8,0,0,0,.88,2.11l-2.28,2.7,3.33,3.32,2.7-2.27a9.56,9.56,0,0,0,2.11.87l.3,3.52h4.7l.3-3.52a9.56,9.56,0,0,0,2.11-.87l2.7,2.27,3.33-3.32-2.27-2.7a9.77,9.77,0,0,0,.87-2.11Zm-12.91,3.12a5.47,5.47,0,1,1,5.46-5.47A5.46,5.46,0,0,1,272.54,165.19Z" transform="translate(-47.21 -25.52)"/><path class="cls-5" d="M301,172.56v-3.34l-2.51-.22a6.78,6.78,0,0,0-.62-1.5l1.62-1.92-2.36-2.36-1.93,1.61a7.07,7.07,0,0,0-1.5-.62l-.21-2.5h-3.35l-.21,2.5a7.15,7.15,0,0,0-1.51.62l-1.92-1.61-2.36,2.36,1.61,1.92a6.75,6.75,0,0,0-.61,1.5l-2.51.22v3.34l2.51.22a6.56,6.56,0,0,0,.61,1.5l-1.61,1.92,2.36,2.37,1.92-1.62a6.66,6.66,0,0,0,1.51.62l.21,2.51h3.35l.21-2.51a6.59,6.59,0,0,0,1.5-.62l1.93,1.62,2.36-2.37-1.62-1.92a6.59,6.59,0,0,0,.62-1.5Zm-9.19,2.22a3.89,3.89,0,1,1,3.89-3.89A3.89,3.89,0,0,1,291.81,174.78Z" transform="translate(-47.21 -25.52)"/><path class="cls-5" d="M284.64,180.35V178l-1.79-.16a4.73,4.73,0,0,0-.44-1.07l1.15-1.36-1.68-1.69-1.37,1.15a5.5,5.5,0,0,0-1.06-.44l-.16-1.78h-2.38l-.15,1.78a5.34,5.34,0,0,0-1.07.44l-1.37-1.15-1.68,1.69,1.15,1.36a5.24,5.24,0,0,0-.44,1.07l-1.78.16v2.37l1.78.16a5.24,5.24,0,0,0,.44,1.07l-1.15,1.36,1.68,1.69,1.37-1.15a5.34,5.34,0,0,0,1.07.44l.15,1.78h2.38l.16-1.78a5.5,5.5,0,0,0,1.06-.44l1.37,1.15,1.68-1.69-1.15-1.36a4.73,4.73,0,0,0,.44-1.07Zm-6.54,1.58a2.77,2.77,0,1,1,2.77-2.76A2.77,2.77,0,0,1,278.1,181.93Z" transform="translate(-47.21 -25.52)"/></g><g id="Character"><polygon class="cls-13" points="232.72 282.85 273 431.43 279.02 431.43 238.74 282.85 232.72 282.85"/><rect class="cls-14" x="247.08" y="389.31" width="76.35" height="6.22"/><path class="cls-13" d="M411.38,275,362.05,457h-6l49.32-182c1.82-6.71-2.35-12.17-9.3-12.17h-42.5c-6.94,0-14.08,5.46-15.9,12.17L288.33,457h-6l49.33-182c2.69-9.93,13.21-18,23.49-18h42.51C407.91,257,414.07,265.06,411.38,275Z" transform="translate(-47.21 -25.52)"/><path class="cls-5" d="M412.16,275.05l-12.24,45.18A9.64,9.64,0,0,1,391.1,327H321.26a5.07,5.07,0,0,1-5.16-6.75l12.25-45.18a9.65,9.65,0,0,1,8.82-6.75H407A5.08,5.08,0,0,1,412.16,275.05Z" transform="translate(-47.21 -25.52)"/><g class="cls-15"><path class="cls-9" d="M412.16,275.05l-12.24,45.18A9.64,9.64,0,0,1,391.1,327H321.26a5.07,5.07,0,0,1-5.16-6.75l12.25-45.18a9.65,9.65,0,0,1,8.82-6.75h36.11c15.61,16,13.62,45.49,12.6,54.39a9.73,9.73,0,0,0,7-6.52L405.1,271a6.09,6.09,0,0,0,.15-2.69H407A5.08,5.08,0,0,1,412.16,275.05Z" transform="translate(-47.21 -25.52)"/></g><path class="cls-6" d="M412.16,275.05l-12.24,45.18A9.64,9.64,0,0,1,391.1,327H321.26a5.07,5.07,0,0,1-5.16-6.75l12.25-45.18a9.65,9.65,0,0,1,8.82-6.75H407A5.08,5.08,0,0,1,412.16,275.05Z" transform="translate(-47.21 -25.52)"/><polygon class="cls-13" points="323.89 347.19 346.72 431.43 352.75 431.43 329.91 347.19 323.89 347.19"/><path class="cls-5" d="M377.15,363v8.24H287.23V363a6.06,6.06,0,0,1,6.06-6.06h77.79a6.07,6.07,0,0,1,5.86,4.47A5.93,5.93,0,0,1,377.15,363Z" transform="translate(-47.21 -25.52)"/><g class="cls-16"><path class="cls-9" d="M376.94,361.45c-2.91,3.42-8.13,6.9-17.11,9.83h-72.6V363a6.06,6.06,0,0,1,6.06-6.06h77.79A6.07,6.07,0,0,1,376.94,361.45Z" transform="translate(-47.21 -25.52)"/></g><path class="cls-6" d="M377.15,363v8.24H287.23V363a6.06,6.06,0,0,1,6.06-6.06h77.79a6.07,6.07,0,0,1,5.86,4.47A5.93,5.93,0,0,1,377.15,363Z" transform="translate(-47.21 -25.52)"/><rect class="cls-14" x="236.04" y="343.24" width="98.66" height="7.73" rx="1.71"/><path class="cls-11" d="M284.31,369c-4.31,4.39,16.58,73.37,16.58,73.37-2.28,2-5.64,2.92-8.82,3.34a40.53,40.53,0,0,1-8.81.13s-29.94-72.62-21.7-90.64S320.93,329,320.93,329l2.18-5.4,26.45-3.72,4.37,32.39s-4.34.42-10.87,1.26C325.55,355.75,292.23,361,284.31,369Z" transform="translate(-47.21 -25.52)"/><g class="cls-17"><path class="cls-18" d="M300.89,442.41c-2.28,2-5.64,2.92-8.82,3.34-5.81-21.6-20.6-79.24-15-86.29,6.91-8.7,41.11-16.61,41.11-16.61.14-4.44,12.13-8.44,12.13-8.44l12.74,19.09c-17.51,2.25-50.83,7.48-58.75,15.54C280,373.43,300.89,442.41,300.89,442.41Z" transform="translate(-47.21 -25.52)"/></g><path class="cls-6" d="M284.31,369c-4.31,4.39,16.58,73.37,16.58,73.37-2.28,2-5.64,2.92-8.82,3.34a40.53,40.53,0,0,1-8.81.13s-29.94-72.62-21.7-90.64S320.93,329,320.93,329l2.18-5.4,26.45-3.72,4.37,32.39s-4.34.42-10.87,1.26C325.55,355.75,292.23,361,284.31,369Z" transform="translate(-47.21 -25.52)"/><path class="cls-7" d="M269.51,303.71c-4.39-.75,26.86-28.15,26.86-28.15l15.07,10.14s-25.64,18.06-29.67,18.55S269.51,303.71,269.51,303.71Z" transform="translate(-47.21 -25.52)"/><g class="cls-19"><path class="cls-9" d="M269.51,303.71c-4.39-.75,26.86-28.15,26.86-28.15l15.07,10.14s-25.64,18.06-29.67,18.55S269.51,303.71,269.51,303.71Z" transform="translate(-47.21 -25.52)"/></g><path class="cls-6" d="M269.51,303.71c-4.39-.75,26.86-28.15,26.86-28.15l15.07,10.14s-25.64,18.06-29.67,18.55S269.51,303.71,269.51,303.71Z" transform="translate(-47.21 -25.52)"/><path class="cls-1" d="M275,292.19s6.55,1.63,8.56,3,1.43,6.32,1.43,6.32S276.26,299.05,275,292.19Z" transform="translate(-47.21 -25.52)"/><polygon class="cls-11" points="223.61 254.13 235.78 277.48 237.23 277.48 225.66 252.97 223.61 254.13"/><path class="cls-1" d="M281.8,296.53s-7.68-5.46-9.56-5.46-7.51,6.65-7.51,10,12.28,5.18,14.68,2.35c1.2-1.41-1.18-4.81-1.18-4.81a44.31,44.31,0,0,0,4.59,4.25c1,.56,2.91-.17,2.91-.17S283.17,298.59,281.8,296.53Z" transform="translate(-47.21 -25.52)"/><path class="cls-6" d="M278.23,304.19a23.17,23.17,0,0,0-6.41-5.6" transform="translate(-47.21 -25.52)"/><path class="cls-6" d="M278.23,298.59s-2.66-2.32-4.45-2.83" transform="translate(-47.21 -25.52)"/><path class="cls-6" d="M269.86,301.54a46.54,46.54,0,0,1,5.37,3.22" transform="translate(-47.21 -25.52)"/><path class="cls-2" d="M306.16,263.58c-3.93,2.74-21.58,20.89-21.58,20.89s8.27,9.41,15.52,10.77l19.65-9.54Z" transform="translate(-47.21 -25.52)"/><path class="cls-20" d="M306.16,263.58c-3.93,2.74-21.58,20.89-21.58,20.89s8.27,9.41,15.52,10.77l19.65-9.54Z" transform="translate(-47.21 -25.52)"/><path class="cls-5" d="M296.67,435.09,305,457s1.38,5.63-23.74,3.85l-13.84-1.18Z" transform="translate(-47.21 -25.52)"/><g class="cls-21"><path class="cls-18" d="M296.67,435.09,305,457s1.38,5.63-23.74,3.85l-13.84-1.18Z" transform="translate(-47.21 -25.52)"/></g><path class="cls-6" d="M296.67,435.09,305,457s1.38,5.63-23.74,3.85l-13.84-1.18Z" transform="translate(-47.21 -25.52)"/><path class="cls-2" d="M293.51,445.57s1.78,8.51,0,14.84c0,0-26.51,4.15-32.44,2.57s-9.53-4.54-9.71-6c0,0,.21-4.06,6.15-5.25s17.75-2,22.42-8.7S293.51,445.57,293.51,445.57Z" transform="translate(-47.21 -25.52)"/><path class="cls-3" d="M328.49,322.72c8.47-12.08,47.41,2.46,47.41,2.46s3.71,29.08-11.8,36.84-37.87,7.34-43.91,13.63l-24.58,72.58s-8.83,3.69-21.67-2.12c0,0,15.61-54.81,20.19-74.27,4.53-19.26,33.86-32.33,33.86-32.33a17.89,17.89,0,0,1-3.37-6.08" transform="translate(-47.21 -25.52)"/><path class="cls-22" d="M367.91,350.52A41.47,41.47,0,0,1,364,353.6" transform="translate(-47.21 -25.52)"/><path class="cls-22" d="M371.1,325.89c3.18,6.9,3.43,15.66-1,22.05" transform="translate(-47.21 -25.52)"/><path class="cls-22" d="M362.23,327s-.81,5.32,1.56,7.43,9.64,3.18,9.64,3.18" transform="translate(-47.21 -25.52)"/><path class="cls-22" d="M330.31,327.24s.33,5.3-1.82,5.05-2.26,2.12-2.26,2.12" transform="translate(-47.21 -25.52)"/><path class="cls-2" d="M306.68,267.66a18.11,18.11,0,0,1-.52-4.08s12-10.12,27.45-10.06c18.4.06,29.65,5.85,34.15,13.89,7.14,12.72,8.14,57.77,8.14,57.77s-46.17,7.12-52.79-1.61c-1.15-1.52-.27-12.25-.27-12.25s-5.17-13.56-6.26-24.08c0,0-2-2.68-4.23-6.5a61.65,61.65,0,0,1-4.26-8.61" transform="translate(-47.21 -25.52)"/><path class="cls-23" d="M306.68,267.66a18.11,18.11,0,0,1-.52-4.08s12-10.12,27.45-10.06c18.4.06,29.65,5.85,34.15,13.89,7.14,12.72,8.14,57.77,8.14,57.77s-46.17,7.12-52.79-1.61c-1.15-1.52-.27-12.25-.27-12.25s-5.17-13.56-6.26-24.08c0,0-2-2.68-4.23-6.5a61.65,61.65,0,0,1-4.26-8.61" transform="translate(-47.21 -25.52)"/><path class="cls-6" d="M324.36,278.49s7.05,27.35,6,33.37a11.09,11.09,0,0,0,1,6.07,6.37,6.37,0,0,0-1,7.38" transform="translate(-47.21 -25.52)"/><path class="cls-6" d="M343.06,301.12a7,7,0,0,1-3.54-1.12l-2.09-9.16a38.66,38.66,0,0,0,12.38-.87l2.24,10a33.16,33.16,0,0,1-3.83.83" transform="translate(-47.21 -25.52)"/><path class="cls-2" d="M319.35,282.05s-6-25.56,9.14-28.53,18.25,4.1,17.36,8.89c-1.19,6.39-13.74,22.06-13.74,22.06l-7.75-6Z" transform="translate(-47.21 -25.52)"/><path class="cls-20" d="M319.35,282.05s-6-25.56,9.14-28.53,18.25,4.1,17.36,8.89c-1.19,6.39-13.74,22.06-13.74,22.06l-7.75-6Z" transform="translate(-47.21 -25.52)"/><path class="cls-22" d="M299.49,361s9.78-11.29,31.86-19.82c0,0-5.72-1.75-7-4.13" transform="translate(-47.21 -25.52)"/><line class="cls-22" x1="240.78" y1="370.03" x2="231.83" y2="402.49"/><path class="cls-2" d="M357.07,302s4,6.75,20.47,6.13a25.54,25.54,0,0,0-11.24-7C359.57,299.33,357.07,302,357.07,302Z" transform="translate(-47.21 -25.52)"/><path class="cls-1" d="M293.17,304.71s3.82-5.92,7.32-7.11,13.78-1.29,15.37-1.33,29.84,7.14,43.1,11.56L357.8,285.7l17.82,1.41s-.72,27-3.49,34.15-6.74,5.41-13.51,2.49c-26.63-11.47-42.23-19.46-43.68-19S293.17,304.71,293.17,304.71Z" transform="translate(-47.21 -25.52)"/><path class="cls-2" d="M353.35,272.84a16.61,16.61,0,0,0-.44,5.62c.79,6.92,4.16,23.54,4.16,23.54s16.61,2.37,20.47,6.13c0,0,2.74-22-2.84-33.17s-11.35-12.4-11.35-12.4c-3.65-.9-7,2.5-8.85,6.87" transform="translate(-47.21 -25.52)"/><g class="cls-24"><path class="cls-1" d="M353.35,272.84a16.61,16.61,0,0,0-.44,5.62c.79,6.92,4.16,23.54,4.16,23.54s16.61,2.37,20.47,6.13c0,0,2.74-22-2.84-33.17s-11.35-12.4-11.35-12.4c-3.65-.9-7,2.5-8.85,6.87" transform="translate(-47.21 -25.52)"/></g><path class="cls-6" d="M304.55,281.4a22,22,0,0,0,8.5,4.3" transform="translate(-47.21 -25.52)"/><path class="cls-6" d="M357.07,281.4s6,11.34,13.58,13.84" transform="translate(-47.21 -25.52)"/><path class="cls-22" d="M318.19,368.75s1.11.84,1.56,3.87" transform="translate(-47.21 -25.52)"/><path class="cls-22" d="M314.08,372.62a7,7,0,0,1,4.89,2.82" transform="translate(-47.21 -25.52)"/><path class="cls-22" d="M281,361s3.2,1.62,2.51,6.21" transform="translate(-47.21 -25.52)"/><path class="cls-22" d="M277.63,364.9s4.37,2.59,4.68,4.91" transform="translate(-47.21 -25.52)"/><path class="cls-22" d="M328.28,336.92s9.73,1.36,11.91,0" transform="translate(-47.21 -25.52)"/><path class="cls-7" d="M324.36,277.39a18.49,18.49,0,0,1-1-7.43,21.71,21.71,0,0,1,.27-2.55l-1.69-2.68-2.17-3.45,2.51-10s16,3.08,17.2,7.54S324.36,277.39,324.36,277.39Z" transform="translate(-47.21 -25.52)"/><g class="cls-25"><path class="cls-9" d="M323.34,270a21.71,21.71,0,0,1,.27-2.55l-1.69-2.68a12.77,12.77,0,0,0,7.81-4.38A9.83,9.83,0,0,1,323.34,270Z" transform="translate(-47.21 -25.52)"/></g><path class="cls-6" d="M324.36,277.39a18.49,18.49,0,0,1-1-7.43,21.71,21.71,0,0,1,.27-2.55l-1.69-2.68-2.17-3.45,2.51-10s16,3.08,17.2,7.54S324.36,277.39,324.36,277.39Z" transform="translate(-47.21 -25.52)"/><path class="cls-1" d="M334.4,252.12c5-13,1.68-35.13-22.32-30.89C298,223.73,296.3,240.75,301,248.31s-.29,7.8,6.78,13.4c2.87,2.27,5.18,6.12,8.6,6.37,4.07.28,9.28-3.57,13.17-7.73" transform="translate(-47.21 -25.52)"/><path class="cls-6" d="M310.75,248.31s3.54-3.22,7.75-1.89" transform="translate(-47.21 -25.52)"/><path class="cls-6" d="M304.12,248.31a6.24,6.24,0,0,0-4.59-3.1" transform="translate(-47.21 -25.52)"/><path class="cls-1" d="M306.46,253s-.51,2.59-1.18,5.21,4.2,1.19,4,.79" transform="translate(-47.21 -25.52)"/><path class="cls-6" d="M311.79,262.27a10.64,10.64,0,0,0,5.27-3.45" transform="translate(-47.21 -25.52)"/><path class="cls-11" d="M315.68,251.6a1.1,1.1,0,1,1-2.06.56,1.1,1.1,0,1,1,2.06-.56Z" transform="translate(-47.21 -25.52)"/><path class="cls-11" d="M305,251.38c.2.72.06,1.4-.32,1.5s-.85-.4-1-1.13-.05-1.4.33-1.5S304.78,250.65,305,251.38Z" transform="translate(-47.21 -25.52)"/><path class="cls-3" d="M319.6,234.92s-3.72,9.73-12.92,9.51c0,0,3.19-2.43,4.07-4.75,0,0-7.08,7-14.15,3.44S293,223,303.85,216.46s21.95-4.79,25.71,1.46c0,0,7.6-.7,10.95,10.47,3,10-1.8,25.16-6.49,25.33-7.27.27-8.73-7.62-8.73-7.62A20.79,20.79,0,0,1,319.6,234.92Z" transform="translate(-47.21 -25.52)"/><path class="cls-1" d="M327.57,252.17s-.23-9.18,5-8.07,1.44,11.72-2.49,11.61" transform="translate(-47.21 -25.52)"/><rect class="cls-2" x="181.95" y="278.2" width="83.89" height="6.07" rx="1.63"/></g><g id="Plant"><polygon class="cls-3" points="64.58 400.34 30.57 400.34 34.13 431.43 61.02 431.43 64.58 400.34"/><path class="cls-2" d="M115.82,404.22s-14.85,1.17-15.47,12.13C100.35,416.35,115.39,423.27,115.82,404.22Z" transform="translate(-47.21 -25.52)"/><path class="cls-2" d="M86.44,406.94s-8.3-11.22-21.71-5.47C64.73,401.47,72.92,415,86.44,406.94Z" transform="translate(-47.21 -25.52)"/><path class="cls-2" d="M65.87,371.52s-2.39,21.58,17.26,15.64C83.13,387.16,76.89,371.29,65.87,371.52Z" transform="translate(-47.21 -25.52)"/><path class="cls-2" d="M90,359.5s-15.54,8.38-4.11,21.1C85.88,380.6,96.77,371.51,90,359.5Z" transform="translate(-47.21 -25.52)"/><path class="cls-2" d="M109.11,378.79s-16.9-1.71-16.9,13.93C92.21,392.72,109.11,393.39,109.11,378.79Z" transform="translate(-47.21 -25.52)"/><path class="cls-6" d="M93.18,438.67s7.7-16.16.31-32.62-9.9-30.33-6-40.1" transform="translate(-47.21 -25.52)"/><path class="cls-6" d="M103.56,383S93.43,387,90,397.45" transform="translate(-47.21 -25.52)"/><path class="cls-6" d="M71.21,380.15s5.85,8,15.76,7.11" transform="translate(-47.21 -25.52)"/><path class="cls-6" d="M71.21,403.77s16.2,4.66,22.64,3.14" transform="translate(-47.21 -25.52)"/><path class="cls-6" d="M111,409.15s-7.25,8-14.53,7.83" transform="translate(-47.21 -25.52)"/><rect class="cls-3" x="76.32" y="425.18" width="36.93" height="4.39" transform="translate(142.36 829.22) rotate(180)"/></g><g id="Bag"><path class="cls-5" d="M381.24,397a68.26,68.26,0,0,0-21.19,22c-8.81,14.7-15.79,35.38-4.95,38l10.31-.39,19.84-6.81-2.08-4s-17.37,9.21-20.34,9.21-6.84.74-8.47-.45,5.71-27.92,21.42-36.83S381.24,397,381.24,397Z" transform="translate(-47.21 -25.52)"/><g class="cls-26"><path class="cls-27" d="M381.24,397a68.26,68.26,0,0,0-21.19,22c-8.81,14.7-15.79,35.38-4.95,38l10.31-.39,19.84-6.81-2.08-4s-17.37,9.21-20.34,9.21-6.84.74-8.47-.45,5.71-27.92,21.42-36.83S381.24,397,381.24,397Z" transform="translate(-47.21 -25.52)"/></g><path class="cls-6" d="M381.24,397a68.26,68.26,0,0,0-21.19,22c-8.81,14.7-15.79,35.38-4.95,38l10.31-.39,19.84-6.81-2.08-4s-17.37,9.21-20.34,9.21-6.84.74-8.47-.45,5.71-27.92,21.42-36.83S381.24,397,381.24,397Z" transform="translate(-47.21 -25.52)"/><path class="cls-2" d="M392.53,387.36s0-4.31,6.53-4.9,7.46,5.7,7.46,5.7h-2.25s.05-3.77-4.75-4.06-4.62,4.06-4.62,4.06Z" transform="translate(-47.21 -25.52)"/><path class="cls-5" d="M382.87,457c-13.81,0-11.19-61.93-9.6-65s41.66-4.6,45.61-3.3,19.79,63,11.05,67.93Z" transform="translate(-47.21 -25.52)"/><g class="cls-28"><path class="cls-9" d="M382.87,457c-13.81,0-11.19-61.93-9.6-65s41.66-4.6,45.61-3.3,19.79,63,11.05,67.93Z" transform="translate(-47.21 -25.52)"/></g><path class="cls-6" d="M382.87,457c-13.81,0-11.19-61.93-9.6-65s41.66-4.6,45.61-3.3,19.79,63,11.05,67.93Z" transform="translate(-47.21 -25.52)"/><path class="cls-2" d="M373.27,391.93c5,1.07,7.88,21.34,14.61,26.5s38.46,4.05,42.05,0-3.43-26.79-8.53-30.27-8.73-.1-23.08-1.69C377.05,384.1,373.27,391.93,373.27,391.93Z" transform="translate(-47.21 -25.52)"/><path class="cls-5" d="M409.69,403.58l5.88,4.8a.8.8,0,0,1,.08,1.14l-4.58,4.94a.78.78,0,0,1-1.11,0L404.13,409a.78.78,0,0,1,0-1.14l4.53-4.21A.79.79,0,0,1,409.69,403.58Z" transform="translate(-47.21 -25.52)"/><g class="cls-29"><path class="cls-9" d="M409.69,403.58l5.88,4.8a.8.8,0,0,1,.08,1.14l-4.58,4.94a.78.78,0,0,1-1.11,0L404.13,409a.78.78,0,0,1,0-1.14l4.53-4.21A.79.79,0,0,1,409.69,403.58Z" transform="translate(-47.21 -25.52)"/></g><path class="cls-6" d="M409.69,403.58l5.88,4.8a.8.8,0,0,1,.08,1.14l-4.58,4.94a.78.78,0,0,1-1.11,0L404.13,409a.78.78,0,0,1,0-1.14l4.53-4.21A.79.79,0,0,1,409.69,403.58Z" transform="translate(-47.21 -25.52)"/><path class="cls-5" d="M390.3,428.79s26.58,2.19,39.63-1.19a11.22,11.22,0,0,1,3.73,5.35c1.19,3.56,3.67,15.74-3.73,18.86s-34,2.52-37.55-1S390.3,428.79,390.3,428.79Z" transform="translate(-47.21 -25.52)"/><g class="cls-30"><path class="cls-31" d="M390.3,428.79s26.58,2.19,39.63-1.19a11.22,11.22,0,0,1,3.73,5.35c1.19,3.56,3.67,15.74-3.73,18.86s-34,2.52-37.55-1S390.3,428.79,390.3,428.79Z" transform="translate(-47.21 -25.52)"/></g><path class="cls-6" d="M390.3,428.79s26.58,2.19,39.63-1.19a11.22,11.22,0,0,1,3.73,5.35c1.19,3.56,3.67,15.74-3.73,18.86s-34,2.52-37.55-1S390.3,428.79,390.3,428.79Z" transform="translate(-47.21 -25.52)"/><path class="cls-2" d="M390.3,428.79s3.12,8.41,4.75,9.7,36.16,1.29,40-1.83-1.42-8.76-5.11-9.06C429.93,427.6,405.74,430.42,390.3,428.79Z" transform="translate(-47.21 -25.52)"/><path class="cls-5" d="M379.16,427s.89,17.67,2.67,21.68a9.27,9.27,0,0,1-8.56,0c-4.5-2.38-3.76-17.6-2.87-17.56S379.16,427,379.16,427Z" transform="translate(-47.21 -25.52)"/><g class="cls-32"><path class="cls-31" d="M379.16,427s.89,17.67,2.67,21.68a9.27,9.27,0,0,1-8.56,0c-4.5-2.38-3.76-17.6-2.87-17.56S379.16,427,379.16,427Z" transform="translate(-47.21 -25.52)"/></g><path class="cls-6" d="M379.16,427s.89,17.67,2.67,21.68a9.27,9.27,0,0,1-8.56,0c-4.5-2.38-3.76-17.6-2.87-17.56S379.16,427,379.16,427Z" transform="translate(-47.21 -25.52)"/><path class="cls-2" d="M379.16,427l-6.69,1.34s-6.38,4.9-3.56,6.53S379,432.5,379.16,427Z" transform="translate(-47.21 -25.52)"/></g></svg>